<svg width="320" height="320" viewBox="0 0 320 320" fill="none" xmlns="http://www.w3.org/2000/svg">
<g clip-path="url(#clip0_1687_351)">
<path fill-rule="evenodd" clip-rule="evenodd" d="M33.2086 200.436C14.9983 143.352 38.2308 79.3243 92.246 48.1386C149.365 15.1607 221.078 30.3559 260.339 81.1185C264.259 86.1865 271.303 87.9526 276.852 84.7492L308.831 66.2859C312.126 64.3835 316.34 65.5125 318.242 68.8076C320.144 72.1027 319.015 76.3161 315.72 78.2185L139.976 179.685C133.463 183.445 131.957 192.279 137.755 197.068C165.713 220.162 203.288 219.787 232.899 202.691C260.922 186.512 277.338 155.213 274.445 122.612C274.282 120.778 275.158 118.991 276.754 118.07V118.07C279.217 116.648 282.372 117.792 283.237 120.501C301.449 177.587 278.216 241.616 224.2 272.802C167.421 305.583 96.2228 290.764 56.8129 240.726C52.8761 235.728 45.8828 234.009 40.3726 237.191L10.8965 254.209C7.60138 256.111 3.38795 254.982 1.48552 251.687C-0.416897 248.392 0.712085 244.178 4.00718 242.276L177.474 142.125C183.927 138.399 185.482 129.674 179.824 124.825C151.755 100.77 113.56 100.92 83.5467 118.248C55.5243 134.427 39.1079 165.726 42.0006 198.325C42.1634 200.16 41.2869 201.947 39.6918 202.868C37.2287 204.29 34.073 203.146 33.2086 200.436Z" fill="black"/>
</g>
<defs>
<clipPath id="clip0_1687_351">
<rect width="320" height="320" fill="white"/>
</clipPath>
</defs>
</svg>
